<svg xmlns="http://www.w3.org/2000/svg" xmlns:xlink="http://www.w3.org/1999/xlink" width="13" height="12" viewBox="0 0 13 12" fill="none">
<path d="M9.03036 1.3744C8.9375 1.282 8.9375 1.14341 9.03036 1.05101L10.017 0.0692974C10.1098 -0.0230991 10.2491 -0.0230991 10.342 0.0692974L11.9786 1.69779C12.0714 1.79018 12.0714 1.92878 11.9786 2.02117L10.992 3.00289C10.8991 3.09528 10.7598 3.09528 10.667 3.00289L9.03036 1.3744ZM4.64286 9.3436L10.0402 3.97305C10.1214 3.8922 10.1098 3.75361 10.017 3.67276L8.38036 2.03272C8.2875 1.94033 8.14821 1.92878 8.07857 2.00962L2.66964 7.38017L1.85714 10.1521L4.64286 9.3436ZM0 11.076L0 12L13 12L13 11.076L0 11.076Z"  style="mix-blend-mode:normal" fill="#3fa9a8" fill-opacity="0.65">
</path>
</svg>
