<svg xmlns="http://www.w3.org/2000/svg" xmlns:xlink="http://www.w3.org/1999/xlink" width="348.288" height="223" viewBox="0 0 348.288 223">
  <defs>
    <style>.a{fill:#00132c;}.a,.b,.c{opacity:0.996;}.b{fill:#fff;}.c,.e,.h{fill:none;}.c,.d,.e{stroke-miterlimit:10;}.d{stroke:#4f94e6;fill:url(#d);}.d,.e{stroke-width:3px;}.e{stroke:rgba(149,239,255,0.32);stroke-linecap:round;}.f,.g{stroke:none;}.g{fill:#00d9ff;}.i{filter:url(#a);}</style>
    <filter id="a">
      <feOffset dy="1"></feOffset>
      <feGaussianBlur stdDeviation="10" result="b"></feGaussianBlur>
      <feFlood flood-color="#00d9ff" flood-opacity="0.435" result="c"></feFlood>
      <feComposite operator="out" in="SourceGraphic" in2="b"></feComposite>
      <feComposite operator="in" in="c"></feComposite>
      <feComposite operator="in" in2="SourceGraphic"></feComposite>
    </filter>
    <linearGradient id="d" y1="0.5" x2="0" gradientUnits="objectBoundingBox">
      <stop offset="0" stop-color="#3662a4"></stop>
      <stop offset="1" stop-color="#0a101f"></stop>
    </linearGradient>
  </defs>
  <g transform="translate(-969.914 -498.862)">
    <g data-type="innerShadowGroup">
      <g class="a" transform="translate(971.914 502.862)">
        <path class="f" d="M 320.2875061035156 217.9999084472656 L 24.00031471252441 217.9999084472656 C 20.62567901611328 217.9999084472656 17.35149574279785 217.3387756347656 14.26867866516113 216.0348663330078 C 11.29149627685547 214.7756805419922 8.617996215820312 212.9732208251953 6.322360038757324 210.6775512695312 C 4.026678562164307 208.3819122314453 2.224223852157593 205.7084045410156 0.9650419950485229 202.7312316894531 C -0.3388670980930328 199.6484069824219 -1.000003457069397 196.3742218017578 -1.000003457069397 192.9995880126953 L -1.000003457069397 28.65059089660645 L -1.000003457069397 11.83681774139404 C -1.000003457069397 10.03290843963623 -0.4328670799732208 8.292272567749023 0.6856783628463745 6.663227081298828 C 1.732951045036316 5.137954235076904 3.219405651092529 3.776090621948242 5.103678226470947 2.615363359451294 C 8.888542175292969 0.2839542329311371 13.90036010742188 -1.000000357627869 19.21590614318848 -1.000000357627869 L 108.7992248535156 -1.000000357627869 L 109.2344055175781 -1.000000357627869 L 109.5309982299805 -0.6815457940101624 L 115.7405014038086 5.985817909240723 L 230.0635681152344 5.985817909240723 L 235.7374572753906 -0.6498639583587646 L 236.0368194580078 -1.000000357627869 L 236.4974975585938 -1.000000357627869 L 325.0718994140625 -1.000000357627869 C 330.3870849609375 -1.000000357627869 335.3988037109375 0.2839542329311371 339.1837768554688 2.615363359451294 C 341.0681457519531 3.776090621948242 342.5546264648438 5.137954235076904 343.6019897460938 6.663181304931641 C 344.7206420898438 8.292272567749023 345.2878112792969 10.03290843963623 345.2878112792969 11.83681774139404 L 345.2878112792969 32.89500045776367 L 345.2878112792969 192.9995880126953 C 345.2878112792969 196.3742218017578 344.6266784667969 199.6484069824219 343.3227844238281 202.7312316894531 C 342.0635986328125 205.7084045410156 340.2610778808594 208.3819122314453 337.9654541015625 210.6775512695312 C 335.6697998046875 212.9732208251953 332.9962768554688 214.7756805419922 330.0191345214844 216.0348663330078 C 326.9363098144531 217.3387756347656 323.6621398925781 217.9999084472656 320.2875061035156 217.9999084472656 Z"></path>
        <path class="f" d="M 320.2875061035156 216.9999084472656 C 333.5426940917969 216.9999084472656 344.2878112792969 206.2548065185547 344.2878112792969 192.9996032714844 L 344.2878112792969 11.83680438995361 C 344.2878112792969 5.299204349517822 335.6838073730469 4.223632913635811e-06 325.0718994140625 4.223632913635811e-06 L 236.4975128173828 4.223632913635811e-06 L 230.5242004394531 6.985804080963135 L 115.305305480957 6.985804080963135 L 108.799201965332 4.223632913635811e-06 L 19.21590614318848 4.223632913635811e-06 C 8.603105545043945 4.223632913635811e-06 5.639648406940978e-06 5.299204349517822 5.639648406940978e-06 11.83680438995361 L 5.639648406940978e-06 192.9996032714844 C 5.639648406940978e-06 206.2548065185547 10.7451057434082 216.9999084472656 24.00030517578125 216.9999084472656 L 320.2875061035156 216.9999084472656 M 320.2875061035156 218.9999084472656 L 24.00030517578125 218.9999084472656 C 20.4911060333252 218.9999084472656 17.08585548400879 218.3122100830078 13.87910556793213 216.9559020996094 C 10.78275585174561 215.6462554931641 8.002405166625977 213.7718505859375 5.615255832672119 211.3846588134766 C 3.228055715560913 208.9974975585938 1.353655695915222 206.2171478271484 0.04400563985109329 203.1208038330078 C -1.312294363975525 199.9140472412109 -1.999994397163391 196.5088043212891 -1.999994397163391 192.9996032714844 L -1.999994397163391 11.83680438995361 C -1.999994397163391 9.827004432678223 -1.373744368553162 7.895904064178467 -0.1386943608522415 6.097154140472412 C 0.9880556464195251 4.456154346466064 2.575405597686768 2.998254299163818 4.579205513000488 1.763954281806946 C 8.51960563659668 -0.6632457971572876 13.71770572662354 -1.999995827674866 19.21590614318848 -1.999995827674866 L 109.6696090698242 -1.999995827674866 L 116.1756439208984 4.985804080963135 L 229.6029205322266 4.985804080963135 L 235.5762023925781 -1.999995827674866 L 325.0718994140625 -1.999995827674866 C 330.5697631835938 -1.999995827674866 335.7677001953125 -0.6632958054542542 339.7081909179688 1.763904213905334 C 341.7120971679688 2.998254299163818 343.2994995117188 4.456154346466064 344.4263610839844 6.097104072570801 C 345.6614990234375 7.895904064178467 346.2878112792969 9.827004432678223 346.2878112792969 11.83680438995361 L 346.2878112792969 192.9996032714844 C 346.2878112792969 196.5088043212891 345.60009765625 199.9140472412109 344.2438049316406 203.1208038330078 C 342.9341430664062 206.2171478271484 341.0597534179688 208.9974975585938 338.6725463867188 211.3846588134766 C 336.285400390625 213.7718505859375 333.5050659179688 215.6462554931641 330.40869140625 216.9559020996094 C 327.2019653320312 218.3122100830078 323.7966918945312 218.9999084472656 320.2875061035156 218.9999084472656 Z"></path>
      </g>
      <g class="i" transform="matrix(1, 0, 0, 1, 969.91, 498.86)">
        <g class="b" transform="translate(2 4)">
          <path class="f" d="M 320.2875061035156 217.9999084472656 L 24.00031471252441 217.9999084472656 C 20.62567901611328 217.9999084472656 17.35149574279785 217.3387756347656 14.26867866516113 216.0348663330078 C 11.29149627685547 214.7756805419922 8.617996215820312 212.9732208251953 6.322360038757324 210.6775512695312 C 4.026678562164307 208.3819122314453 2.224223852157593 205.7084045410156 0.9650419950485229 202.7312316894531 C -0.3388670980930328 199.6484069824219 -1.000003457069397 196.3742218017578 -1.000003457069397 192.9995880126953 L -1.000003457069397 28.65059089660645 L -1.000003457069397 11.83681774139404 C -1.000003457069397 10.03290843963623 -0.4328670799732208 8.292272567749023 0.6856783628463745 6.663227081298828 C 1.732951045036316 5.137954235076904 3.219405651092529 3.776090621948242 5.103678226470947 2.615363359451294 C 8.888542175292969 0.2839542329311371 13.90036010742188 -1.000000357627869 19.21590614318848 -1.000000357627869 L 108.7992248535156 -1.000000357627869 L 109.2344055175781 -1.000000357627869 L 109.5309982299805 -0.6815457940101624 L 115.7405014038086 5.985817909240723 L 230.0635681152344 5.985817909240723 L 235.7374572753906 -0.6498639583587646 L 236.0368194580078 -1.000000357627869 L 236.4974975585938 -1.000000357627869 L 325.0718994140625 -1.000000357627869 C 330.3870849609375 -1.000000357627869 335.3988037109375 0.2839542329311371 339.1837768554688 2.615363359451294 C 341.0681457519531 3.776090621948242 342.5546264648438 5.137954235076904 343.6019897460938 6.663181304931641 C 344.7206420898438 8.292272567749023 345.2878112792969 10.03290843963623 345.2878112792969 11.83681774139404 L 345.2878112792969 32.89500045776367 L 345.2878112792969 192.9995880126953 C 345.2878112792969 196.3742218017578 344.6266784667969 199.6484069824219 343.3227844238281 202.7312316894531 C 342.0635986328125 205.7084045410156 340.2610778808594 208.3819122314453 337.9654541015625 210.6775512695312 C 335.6697998046875 212.9732208251953 332.9962768554688 214.7756805419922 330.0191345214844 216.0348663330078 C 326.9363098144531 217.3387756347656 323.6621398925781 217.9999084472656 320.2875061035156 217.9999084472656 Z"></path>
          <path class="f" d="M 320.2875061035156 216.9999084472656 C 333.5426940917969 216.9999084472656 344.2878112792969 206.2548065185547 344.2878112792969 192.9996032714844 L 344.2878112792969 11.83680438995361 C 344.2878112792969 5.299204349517822 335.6838073730469 4.223632913635811e-06 325.0718994140625 4.223632913635811e-06 L 236.4975128173828 4.223632913635811e-06 L 230.5242004394531 6.985804080963135 L 115.305305480957 6.985804080963135 L 108.799201965332 4.223632913635811e-06 L 19.21590614318848 4.223632913635811e-06 C 8.603105545043945 4.223632913635811e-06 5.639648406940978e-06 5.299204349517822 5.639648406940978e-06 11.83680438995361 L 5.639648406940978e-06 192.9996032714844 C 5.639648406940978e-06 206.2548065185547 10.7451057434082 216.9999084472656 24.00030517578125 216.9999084472656 L 320.2875061035156 216.9999084472656 M 320.2875061035156 218.9999084472656 L 24.00030517578125 218.9999084472656 C 20.4911060333252 218.9999084472656 17.08585548400879 218.3122100830078 13.87910556793213 216.9559020996094 C 10.78275585174561 215.6462554931641 8.002405166625977 213.7718505859375 5.615255832672119 211.3846588134766 C 3.228055715560913 208.9974975585938 1.353655695915222 206.2171478271484 0.04400563985109329 203.1208038330078 C -1.312294363975525 199.9140472412109 -1.999994397163391 196.5088043212891 -1.999994397163391 192.9996032714844 L -1.999994397163391 11.83680438995361 C -1.999994397163391 9.827004432678223 -1.373744368553162 7.895904064178467 -0.1386943608522415 6.097154140472412 C 0.9880556464195251 4.456154346466064 2.575405597686768 2.998254299163818 4.579205513000488 1.763954281806946 C 8.51960563659668 -0.6632457971572876 13.71770572662354 -1.999995827674866 19.21590614318848 -1.999995827674866 L 109.6696090698242 -1.999995827674866 L 116.1756439208984 4.985804080963135 L 229.6029205322266 4.985804080963135 L 235.5762023925781 -1.999995827674866 L 325.0718994140625 -1.999995827674866 C 330.5697631835938 -1.999995827674866 335.7677001953125 -0.6632958054542542 339.7081909179688 1.763904213905334 C 341.7120971679688 2.998254299163818 343.2994995117188 4.456154346466064 344.4263610839844 6.097104072570801 C 345.6614990234375 7.895904064178467 346.2878112792969 9.827004432678223 346.2878112792969 11.83680438995361 L 346.2878112792969 192.9996032714844 C 346.2878112792969 196.5088043212891 345.60009765625 199.9140472412109 344.2438049316406 203.1208038330078 C 342.9341430664062 206.2171478271484 341.0597534179688 208.9974975585938 338.6725463867188 211.3846588134766 C 336.285400390625 213.7718505859375 333.5050659179688 215.6462554931641 330.40869140625 216.9559020996094 C 327.2019653320312 218.3122100830078 323.7966918945312 218.9999084472656 320.2875061035156 218.9999084472656 Z"></path>
        </g>
      </g>
      <g class="c" transform="translate(971.914 502.862)">
        <path class="f" d="M 320.2875061035156 217.9999084472656 L 24.00031471252441 217.9999084472656 C 20.62567901611328 217.9999084472656 17.35149574279785 217.3387756347656 14.26867866516113 216.0348663330078 C 11.29149627685547 214.7756805419922 8.617996215820312 212.9732208251953 6.322360038757324 210.6775512695312 C 4.026678562164307 208.3819122314453 2.224223852157593 205.7084045410156 0.9650419950485229 202.7312316894531 C -0.3388670980930328 199.6484069824219 -1.000003457069397 196.3742218017578 -1.000003457069397 192.9995880126953 L -1.000003457069397 28.65059089660645 L -1.000003457069397 11.83681774139404 C -1.000003457069397 10.03290843963623 -0.4328670799732208 8.292272567749023 0.6856783628463745 6.663227081298828 C 1.732951045036316 5.137954235076904 3.219405651092529 3.776090621948242 5.103678226470947 2.615363359451294 C 8.888542175292969 0.2839542329311371 13.90036010742188 -1.000000357627869 19.21590614318848 -1.000000357627869 L 108.7992248535156 -1.000000357627869 L 109.2344055175781 -1.000000357627869 L 109.5309982299805 -0.6815457940101624 L 115.7405014038086 5.985817909240723 L 230.0635681152344 5.985817909240723 L 235.7374572753906 -0.6498639583587646 L 236.0368194580078 -1.000000357627869 L 236.4974975585938 -1.000000357627869 L 325.0718994140625 -1.000000357627869 C 330.3870849609375 -1.000000357627869 335.3988037109375 0.2839542329311371 339.1837768554688 2.615363359451294 C 341.0681457519531 3.776090621948242 342.5546264648438 5.137954235076904 343.6019897460938 6.663181304931641 C 344.7206420898438 8.292272567749023 345.2878112792969 10.03290843963623 345.2878112792969 11.83681774139404 L 345.2878112792969 32.89500045776367 L 345.2878112792969 192.9995880126953 C 345.2878112792969 196.3742218017578 344.6266784667969 199.6484069824219 343.3227844238281 202.7312316894531 C 342.0635986328125 205.7084045410156 340.2610778808594 208.3819122314453 337.9654541015625 210.6775512695312 C 335.6697998046875 212.9732208251953 332.9962768554688 214.7756805419922 330.0191345214844 216.0348663330078 C 326.9363098144531 217.3387756347656 323.6621398925781 217.9999084472656 320.2875061035156 217.9999084472656 Z"></path>
        <path class="g" d="M 320.2875061035156 216.9999084472656 C 333.5426940917969 216.9999084472656 344.2878112792969 206.2548065185547 344.2878112792969 192.9996032714844 L 344.2878112792969 11.83680438995361 C 344.2878112792969 5.299204349517822 335.6838073730469 4.223632913635811e-06 325.0718994140625 4.223632913635811e-06 L 236.4975128173828 4.223632913635811e-06 L 230.5242004394531 6.985804080963135 L 115.305305480957 6.985804080963135 L 108.799201965332 4.223632913635811e-06 L 19.21590614318848 4.223632913635811e-06 C 8.603105545043945 4.223632913635811e-06 5.639648406940978e-06 5.299204349517822 5.639648406940978e-06 11.83680438995361 L 5.639648406940978e-06 192.9996032714844 C 5.639648406940978e-06 206.2548065185547 10.7451057434082 216.9999084472656 24.00030517578125 216.9999084472656 L 320.2875061035156 216.9999084472656 M 320.2875061035156 218.9999084472656 L 24.00030517578125 218.9999084472656 C 20.4911060333252 218.9999084472656 17.08585548400879 218.3122100830078 13.87910556793213 216.9559020996094 C 10.78275585174561 215.6462554931641 8.002405166625977 213.7718505859375 5.615255832672119 211.3846588134766 C 3.228055715560913 208.9974975585938 1.353655695915222 206.2171478271484 0.04400563985109329 203.1208038330078 C -1.312294363975525 199.9140472412109 -1.999994397163391 196.5088043212891 -1.999994397163391 192.9996032714844 L -1.999994397163391 11.83680438995361 C -1.999994397163391 9.827004432678223 -1.373744368553162 7.895904064178467 -0.1386943608522415 6.097154140472412 C 0.9880556464195251 4.456154346466064 2.575405597686768 2.998254299163818 4.579205513000488 1.763954281806946 C 8.51960563659668 -0.6632457971572876 13.71770572662354 -1.999995827674866 19.21590614318848 -1.999995827674866 L 109.6696090698242 -1.999995827674866 L 116.1756439208984 4.985804080963135 L 229.6029205322266 4.985804080963135 L 235.5762023925781 -1.999995827674866 L 325.0718994140625 -1.999995827674866 C 330.5697631835938 -1.999995827674866 335.7677001953125 -0.6632958054542542 339.7081909179688 1.763904213905334 C 341.7120971679688 2.998254299163818 343.2994995117188 4.456154346466064 344.4263610839844 6.097104072570801 C 345.6614990234375 7.895904064178467 346.2878112792969 9.827004432678223 346.2878112792969 11.83680438995361 L 346.2878112792969 192.9996032714844 C 346.2878112792969 196.5088043212891 345.60009765625 199.9140472412109 344.2438049316406 203.1208038330078 C 342.9341430664062 206.2171478271484 341.0597534179688 208.9974975585938 338.6725463867188 211.3846588134766 C 336.285400390625 213.7718505859375 333.5050659179688 215.6462554931641 330.40869140625 216.9559020996094 C 327.2019653320312 218.3122100830078 323.7966918945312 218.9999084472656 320.2875061035156 218.9999084472656 Z"></path>
      </g>
    </g>
    <g transform="translate(1092.326 498.862)">
      <g class="d">
        <path class="f" d="M0,0H104a0,0,0,0,1,0,0V0a8,8,0,0,1-8,8H8A8,8,0,0,1,0,0V0A0,0,0,0,1,0,0Z"></path>
        <path class="h" d="M1.5,1.5h101a0,0,0,0,1,0,0v0a5,5,0,0,1-5,5H6.5a5,5,0,0,1-5-5v0A0,0,0,0,1,1.5,1.5Z"></path>
      </g>
    </g>
    <path class="e" d="M0,.5H329.14" transform="translate(977.598 560.997)"></path>
  </g>
</svg>