<svg xmlns="http://www.w3.org/2000/svg" xmlns:xlink="http://www.w3.org/1999/xlink" width="19" height="19" viewBox="0 0 19 19" fill="none">
<g  clip-path="url(#clip-path-78_10)">
<path d="M12.6667 15.0417C12.6667 15.0611 12.6672 15.0805 12.6682 15.0999C12.6691 15.1193 12.6706 15.1387 12.6725 15.158C12.6744 15.1774 12.6767 15.1967 12.6796 15.2159C12.6824 15.2351 12.6858 15.2543 12.6896 15.2733C12.6933 15.2924 12.6976 15.3113 12.7023 15.3302C12.707 15.349 12.7122 15.3678 12.7179 15.3864C12.7235 15.405 12.7296 15.4234 12.7362 15.4417C12.7427 15.46 12.7497 15.4781 12.7571 15.4961C12.7646 15.514 12.7724 15.5318 12.7807 15.5494C12.7891 15.5669 12.7978 15.5843 12.807 15.6014C12.8161 15.6186 12.8257 15.6355 12.8357 15.6521C12.8457 15.6688 12.8561 15.6852 12.8669 15.7014C12.8777 15.7175 12.8888 15.7334 12.9004 15.749C12.912 15.7646 12.924 15.78 12.9363 15.795C12.9486 15.81 12.9613 15.8247 12.9744 15.8391C12.9874 15.8535 13.0008 15.8676 13.0146 15.8813C13.0283 15.8951 13.0424 15.9085 13.0568 15.9215C13.0712 15.9346 13.0859 15.9473 13.1009 15.9596C13.1159 15.9719 13.1312 15.9839 13.1469 15.9955C13.1625 16.007 13.1783 16.0182 13.1945 16.029C13.2107 16.0398 13.2271 16.0502 13.2437 16.0602C13.2604 16.0702 13.2773 16.0798 13.2945 16.0889C13.3116 16.0981 13.329 16.1068 13.3465 16.1151C13.3641 16.1234 13.3818 16.1313 13.3998 16.1388C13.4178 16.1462 13.4359 16.1532 13.4542 16.1597C13.4725 16.1663 13.4909 16.1724 13.5095 16.178C13.5281 16.1837 13.5469 16.1888 13.5657 16.1936C13.5846 16.1983 13.6035 16.2025 13.6226 16.2063C13.6416 16.2101 13.6608 16.2134 13.68 16.2163C13.6992 16.2191 13.7185 16.2215 13.7379 16.2234C13.7572 16.2254 13.7766 16.2268 13.796 16.2277C13.8154 16.2287 13.8348 16.2292 13.8542 16.2292C13.8737 16.2292 13.8931 16.2287 13.9125 16.2277C13.9319 16.2268 13.9513 16.2254 13.9706 16.2234C13.99 16.2215 14.0093 16.2191 14.0285 16.2163C14.0477 16.2134 14.0669 16.2101 14.0859 16.2063C14.105 16.2025 14.1239 16.1983 14.1428 16.1936C14.1616 16.1888 14.1804 16.1837 14.199 16.178C14.2175 16.1724 14.236 16.1663 14.2543 16.1597C14.2726 16.1532 14.2907 16.1462 14.3087 16.1388C14.3266 16.1313 14.3444 16.1234 14.362 16.1151C14.3795 16.1068 14.3969 16.0981 14.414 16.0889C14.4312 16.0798 14.4481 16.0702 14.4647 16.0602C14.4814 16.0502 14.4978 16.0398 14.514 16.029C14.5301 16.0182 14.546 16.007 14.5616 15.9955C14.5772 15.9839 14.5926 15.9719 14.6076 15.9596C14.6226 15.9473 14.6373 15.9346 14.6517 15.9215C14.6661 15.9085 14.6802 15.8951 14.6939 15.8813C14.7077 15.8676 14.7211 15.8535 14.7341 15.8391C14.7472 15.8247 14.7599 15.81 14.7722 15.795C14.7845 15.78 14.7965 15.7646 14.8081 15.749C14.8196 15.7334 14.8308 15.7175 14.8416 15.7014C14.8524 15.6852 14.8628 15.6688 14.8728 15.6521C14.8828 15.6355 14.8924 15.6186 14.9015 15.6014C14.9107 15.5843 14.9194 15.5669 14.9277 15.5494C14.936 15.5318 14.9439 15.514 14.9514 15.4961C14.9588 15.4781 14.9658 15.46 14.9723 15.4417C14.9789 15.4234 14.985 15.405 14.9906 15.3864C14.9963 15.3678 15.0014 15.349 15.0062 15.3302C15.0109 15.3113 15.0151 15.2924 15.0189 15.2733C15.0227 15.2543 15.026 15.2351 15.0289 15.2159C15.0317 15.1967 15.0341 15.1774 15.036 15.158C15.0379 15.1387 15.0394 15.1193 15.0403 15.0999C15.0413 15.0805 15.0417 15.0611 15.0417 15.0417C15.0417 15.0222 15.0413 15.0028 15.0403 14.9834C15.0394 14.964 15.0379 14.9446 15.036 14.9253C15.0341 14.9059 15.0317 14.8866 15.0289 14.8674C15.026 14.8482 15.0227 14.829 15.0189 14.81C15.0151 14.7909 15.0109 14.772 15.0062 14.7531C15.0014 14.7343 14.9963 14.7155 14.9906 14.6969C14.985 14.6783 14.9789 14.6599 14.9723 14.6416C14.9658 14.6233 14.9588 14.6052 14.9514 14.5872C14.9439 14.5693 14.936 14.5515 14.9277 14.5339C14.9194 14.5164 14.9107 14.499 14.9015 14.4819C14.8924 14.4647 14.8828 14.4478 14.8728 14.4312C14.8628 14.4145 14.8524 14.3981 14.8416 14.3819C14.8308 14.3658 14.8196 14.3499 14.8081 14.3343C14.7965 14.3186 14.7845 14.3033 14.7722 14.2883C14.7599 14.2733 14.7472 14.2586 14.7341 14.2442C14.7211 14.2298 14.7077 14.2157 14.6939 14.202C14.6802 14.1882 14.6661 14.1748 14.6517 14.1618C14.6373 14.1487 14.6226 14.136 14.6076 14.1237C14.5926 14.1114 14.5772 14.0994 14.5616 14.0878C14.546 14.0763 14.5301 14.0651 14.514 14.0543C14.4978 14.0435 14.4814 14.0331 14.4647 14.0231C14.4481 14.0131 14.4312 14.0035 14.414 13.9944C14.3969 13.9852 14.3795 13.9765 14.362 13.9682C14.3444 13.9599 14.3266 13.952 14.3087 13.9445C14.2907 13.9371 14.2726 13.9301 14.2543 13.9236C14.236 13.917 14.2175 13.9109 14.199 13.9053C14.1804 13.8996 14.1616 13.8945 14.1428 13.8897C14.1239 13.885 14.105 13.8808 14.0859 13.877C14.0668 13.8732 14.0477 13.8699 14.0285 13.867C14.0093 13.8642 13.99 13.8618 13.9706 13.8599C13.9513 13.858 13.9319 13.8565 13.9125 13.8556C13.8931 13.8546 13.8737 13.8542 13.8542 13.8542C13.8348 13.8542 13.8154 13.8546 13.796 13.8556C13.7766 13.8565 13.7572 13.858 13.7379 13.8599C13.7185 13.8618 13.6992 13.8642 13.68 13.867C13.6608 13.8699 13.6416 13.8732 13.6226 13.877C13.6035 13.8808 13.5846 13.885 13.5657 13.8897C13.5469 13.8945 13.5281 13.8996 13.5095 13.9053C13.4909 13.9109 13.4725 13.917 13.4542 13.9236C13.4359 13.9301 13.4178 13.9371 13.3998 13.9445C13.3818 13.952 13.3641 13.9599 13.3465 13.9682C13.329 13.9765 13.3116 13.9852 13.2945 13.9944C13.2773 14.0035 13.2604 14.0131 13.2437 14.0231C13.2271 14.0331 13.2107 14.0435 13.1945 14.0543C13.1783 14.0651 13.1625 14.0763 13.1469 14.0878C13.1312 14.0994 13.1159 14.1114 13.1009 14.1237C13.0859 14.136 13.0712 14.1487 13.0568 14.1618C13.0424 14.1748 13.0283 14.1882 13.0146 14.202C13.0008 14.2157 12.9874 14.2298 12.9744 14.2442C12.9613 14.2586 12.9486 14.2733 12.9363 14.2883C12.924 14.3033 12.912 14.3186 12.9004 14.3343C12.8888 14.3499 12.8777 14.3658 12.8669 14.3819C12.8561 14.3981 12.8457 14.4145 12.8357 14.4312C12.8257 14.4478 12.8161 14.4647 12.807 14.4819C12.7978 14.499 12.7891 14.5164 12.7807 14.5339C12.7724 14.5515 12.7646 14.5693 12.7571 14.5872C12.7497 14.6052 12.7427 14.6233 12.7362 14.6416C12.7296 14.6599 12.7235 14.6783 12.7179 14.6969C12.7122 14.7155 12.707 14.7343 12.7023 14.7531C12.6976 14.772 12.6933 14.7909 12.6896 14.81C12.6858 14.829 12.6824 14.8482 12.6796 14.8674C12.6767 14.8866 12.6744 14.9059 12.6725 14.9253C12.6706 14.9446 12.6691 14.964 12.6682 14.9834C12.6672 15.0028 12.6667 15.0222 12.6667 15.0417Z"   fill="#A3A4A8" >
</path>
<path d="M16.0985 11.0833L11.6097 11.0833L9.38354 15.0417L11.6097 19L16.0985 19L18.3246 15.0417L16.0985 11.0833ZM15.1722 12.6667L16.5078 15.0417L15.1714 17.4167L12.536 17.4167L11.1996 15.0417L12.5352 12.6667L15.1722 12.6667Z"   fill="#A3A4A8" >
</path>
<path d="M16.2292 3.16666C16.2475 3.16666 16.2657 3.16708 16.2839 3.16792C16.3022 3.16876 16.3204 3.17002 16.3385 3.1717C16.3567 3.17337 16.3748 3.17547 16.3929 3.17799C16.4109 3.1805 16.4289 3.18343 16.4469 3.18677C16.4648 3.19012 16.4827 3.19388 16.5004 3.19805C16.5182 3.20222 16.5358 3.20679 16.5534 3.21176C16.5709 3.21675 16.5884 3.22213 16.6057 3.22792C16.623 3.2337 16.6401 3.23988 16.6572 3.24646C16.6742 3.25303 16.691 3.25999 16.7077 3.26735C16.7244 3.2747 16.7409 3.28243 16.7573 3.29055C16.7736 3.29866 16.7898 3.30715 16.8057 3.316C16.8217 3.32486 16.8374 3.33408 16.8529 3.34365C16.8685 3.35324 16.8837 3.36317 16.8988 3.37347C16.9139 3.38376 16.9287 3.39438 16.9433 3.40534C16.9578 3.41632 16.9722 3.42762 16.9862 3.43926C17.0003 3.45089 17.0141 3.46283 17.0276 3.47509C17.0411 3.48736 17.0543 3.49994 17.0672 3.51281C17.0801 3.52569 17.0928 3.53886 17.1051 3.55232C17.1174 3.56576 17.1294 3.57949 17.1411 3.59351C17.1528 3.60752 17.1641 3.62179 17.1752 3.63631C17.1862 3.65085 17.1969 3.66563 17.2072 3.68066C17.2176 3.69569 17.2276 3.71095 17.2372 3.72643C17.2469 3.74192 17.2561 3.75762 17.2651 3.77352C17.274 3.78944 17.2825 3.80556 17.2907 3.82186C17.2989 3.83817 17.3067 3.85466 17.3141 3.87133C17.3215 3.88799 17.3285 3.90482 17.3352 3.92181C17.3418 3.93881 17.3481 3.95595 17.3539 3.97323C17.3598 3.99051 17.3652 4.00791 17.3703 4.02544C17.3753 4.04297 17.38 4.06061 17.3842 4.07836C17.3884 4.0961 17.3923 4.11393 17.3957 4.13185C17.3991 4.14978 17.4021 4.16777 17.4047 4.18583C17.4073 4.20389 17.4094 4.222 17.4112 4.24016L17.4167 4.35416L17.4167 8.76294C17.4167 8.77541 17.4164 8.78786 17.4158 8.80031C17.4152 8.81276 17.4143 8.82517 17.4131 8.83756C17.4118 8.84998 17.4104 8.86233 17.4086 8.87467C17.4068 8.88699 17.4047 8.89928 17.4024 8.9115C17.4 8.92373 17.3973 8.9359 17.3944 8.94802C17.3915 8.96014 17.3882 8.97216 17.3847 8.98411C17.3812 8.99608 17.3774 9.00793 17.3734 9.01971C17.3693 9.0315 17.365 9.04317 17.3603 9.05473C17.3557 9.06631 17.3508 9.07777 17.3457 9.08911C17.3405 9.10045 17.3351 9.11167 17.3294 9.12275C17.3237 9.13383 17.3178 9.14477 17.3116 9.15557C17.3054 9.16639 17.2989 9.17704 17.2922 9.18752C17.2855 9.19803 17.2785 9.20836 17.2713 9.21853C17.2641 9.22871 17.2567 9.2387 17.249 9.24851C17.2414 9.25833 17.2335 9.26798 17.2254 9.27742C17.2172 9.28687 17.2089 9.29612 17.2003 9.30518C17.1918 9.31423 17.183 9.32308 17.174 9.33171C17.1651 9.34034 17.1559 9.34876 17.1465 9.35698C17.1371 9.36518 17.1276 9.37316 17.1178 9.38092C17.108 9.38868 17.0981 9.39619 17.088 9.40348C17.0779 9.41077 17.0676 9.41781 17.0572 9.42462C17.0467 9.43143 17.0361 9.43797 17.0254 9.44427C17.0147 9.45055 17.0038 9.4566 16.9927 9.46239C16.9817 9.46818 16.9705 9.47371 16.9592 9.47896C16.9479 9.48421 16.9365 9.4892 16.925 9.49394C16.9135 9.49867 16.9019 9.5031 16.8901 9.50728C16.8784 9.51145 16.8665 9.51533 16.8546 9.51895C16.8427 9.52257 16.8307 9.52589 16.8186 9.52893C16.8065 9.53197 16.7944 9.53474 16.7822 9.5372C16.7699 9.53967 16.7577 9.54186 16.7454 9.54375C16.7331 9.54565 16.7207 9.54724 16.7083 9.54856C16.6959 9.54988 16.6835 9.5509 16.6711 9.55162C16.6586 9.55235 16.6462 9.55277 16.6337 9.5529C16.6213 9.55303 16.6088 9.55288 16.5964 9.55244C16.5839 9.55198 16.5715 9.55123 16.5591 9.55019C16.5466 9.54915 16.5343 9.54782 16.5219 9.5462C16.5096 9.54459 16.4972 9.54266 16.485 9.54045C16.4727 9.53824 16.4605 9.53576 16.4484 9.53297C16.4362 9.53021 16.4242 9.52715 16.4122 9.52379C16.4002 9.52043 16.3882 9.5168 16.3764 9.51288C16.3646 9.50896 16.3529 9.50479 16.3412 9.50032C16.3296 9.49585 16.3181 9.49112 16.3067 9.48611C16.2953 9.4811 16.284 9.47581 16.2728 9.47026C16.2617 9.46471 16.2507 9.45892 16.2398 9.45286C16.2289 9.44679 16.2181 9.44048 16.2076 9.43391C16.197 9.42732 16.1865 9.42052 16.1763 9.41345C16.166 9.40638 16.1559 9.39908 16.146 9.39155C16.1361 9.384 16.1264 9.37624 16.1168 9.36825C16.1072 9.36025 16.0979 9.35203 16.0887 9.34359C16.0796 9.33514 16.0706 9.32648 16.0618 9.31763C16.0531 9.30876 16.0446 9.29969 16.0362 9.29043C16.0279 9.28117 16.0198 9.27171 16.0119 9.26204C16.004 9.25239 15.9964 9.24256 15.989 9.23256C15.9815 9.22256 15.9744 9.21237 15.9674 9.20201C15.9605 9.19166 15.9538 9.18116 15.9474 9.17049C15.9409 9.15982 15.9347 9.14902 15.9288 9.13806C15.9229 9.12709 15.9172 9.11601 15.9118 9.10479C15.9064 9.09356 15.9013 9.08221 15.8964 9.07074C15.8915 9.05927 15.8869 9.0477 15.8826 9.03601C15.8783 9.02433 15.8742 9.01255 15.8705 9.00068C15.8667 8.9888 15.8632 8.97684 15.86 8.96479C15.8568 8.95275 15.8539 8.94065 15.8513 8.92846C15.8486 8.91629 15.8463 8.90406 15.8442 8.89176C15.8422 8.87948 15.8404 8.86716 15.8389 8.85478L15.8334 8.76294L15.8334 4.74998L4.75007 4.74998L4.75007 15.8333L7.96107 15.8333C7.97308 15.8333 7.98506 15.8336 7.99705 15.8341C8.00902 15.8346 8.02099 15.8354 8.03294 15.8365C8.04489 15.8376 8.0568 15.839 8.06869 15.8406C8.08058 15.8422 8.09242 15.8441 8.10422 15.8462C8.11602 15.8484 8.12777 15.8508 8.13946 15.8535C8.15115 15.8562 8.16276 15.8592 8.17432 15.8624C8.18588 15.8656 8.19735 15.8691 8.20874 15.8728C8.22015 15.8766 8.23145 15.8806 8.24266 15.8848C8.25389 15.8891 8.265 15.8936 8.276 15.8984C8.287 15.9031 8.29792 15.9081 8.30869 15.9134C8.31948 15.9186 8.33014 15.9241 8.34067 15.9299C8.3512 15.9356 8.3616 15.9416 8.37186 15.9478C8.38212 15.954 8.39223 15.9605 8.40219 15.9671C8.41216 15.9738 8.42197 15.9807 8.43164 15.9878C8.44129 15.995 8.45077 16.0023 8.4601 16.0098C8.46942 16.0174 8.47856 16.0252 8.48753 16.0331C8.49649 16.0411 8.50528 16.0493 8.51387 16.0576C8.52246 16.066 8.53087 16.0745 8.53909 16.0833C8.54729 16.092 8.55529 16.101 8.5631 16.1101C8.57091 16.1192 8.5785 16.1285 8.58587 16.1379C8.59325 16.1474 8.60041 16.157 8.60735 16.1668C8.61431 16.1766 8.62103 16.1865 8.6275 16.1966C8.634 16.2067 8.64025 16.2169 8.64628 16.2273C8.65231 16.2377 8.6581 16.2482 8.66365 16.2588C8.66919 16.2694 8.6745 16.2802 8.67957 16.2911C8.68463 16.3019 8.68944 16.3129 8.69398 16.324C8.69855 16.3351 8.70285 16.3463 8.70692 16.3576C8.71096 16.3689 8.71475 16.3803 8.71829 16.3917C8.72183 16.4032 8.7251 16.4147 8.72811 16.4263C8.73111 16.438 8.73386 16.4496 8.73634 16.4614C8.73881 16.4731 8.74102 16.4849 8.74297 16.4967C8.74492 16.5086 8.74659 16.5204 8.748 16.5324L8.75275 16.625C8.75275 16.637 8.75247 16.649 8.75191 16.6609C8.75137 16.6729 8.75056 16.6849 8.74946 16.6968C8.74837 16.7087 8.74701 16.7206 8.74538 16.7325C8.74377 16.7444 8.74187 16.7562 8.7397 16.768C8.73753 16.7798 8.73508 16.7916 8.73239 16.8032C8.7297 16.8149 8.72673 16.8265 8.7235 16.8381C8.72028 16.8496 8.71679 16.8611 8.71304 16.8724C8.70929 16.8838 8.70528 16.8951 8.70102 16.9063C8.69677 16.9175 8.69224 16.9286 8.68747 16.9396C8.6827 16.9506 8.67769 16.9615 8.67244 16.9723C8.66717 16.9831 8.66166 16.9937 8.65593 17.0042C8.65019 17.0148 8.6442 17.0252 8.63799 17.0354C8.63177 17.0457 8.62531 17.0558 8.61865 17.0657C8.61197 17.0757 8.60507 17.0855 8.59796 17.0951C8.59084 17.1048 8.58351 17.1142 8.57596 17.1236C8.56841 17.1328 8.56063 17.142 8.55267 17.151C8.54471 17.1599 8.53655 17.1687 8.52818 17.1773C8.51981 17.1859 8.51126 17.1942 8.50252 17.2024C8.49378 17.2106 8.48483 17.2186 8.47573 17.2264C8.46661 17.2342 8.45734 17.2418 8.44789 17.2492C8.43845 17.2565 8.42882 17.2637 8.41904 17.2706C8.40926 17.2776 8.39933 17.2843 8.38926 17.2908C8.37917 17.2972 8.36894 17.3035 8.35857 17.3095C8.3482 17.3155 8.33772 17.3213 8.32708 17.3269C8.31645 17.3324 8.30571 17.3377 8.29484 17.3428C8.28396 17.3478 8.27298 17.3526 8.2619 17.3572C8.2508 17.3617 8.23962 17.366 8.22834 17.3701C8.21705 17.3741 8.20568 17.3779 8.19423 17.3814C8.18278 17.385 8.17124 17.3882 8.15965 17.3912C8.14803 17.3942 8.13636 17.397 8.12463 17.3995C8.11291 17.4019 8.10112 17.4042 8.0893 17.4061C8.07747 17.4081 8.06559 17.4097 8.0537 17.4111L7.96107 17.4167L4.35425 17.4167C4.336 17.4167 4.31777 17.4162 4.29955 17.4154C4.28131 17.4146 4.26312 17.4133 4.24496 17.4116C4.22679 17.4099 4.20867 17.4078 4.1906 17.4053C4.17252 17.4028 4.15453 17.3999 4.1366 17.3965C4.11866 17.3932 4.10081 17.3894 4.08305 17.3853C4.06529 17.3811 4.04763 17.3765 4.03008 17.3715C4.01253 17.3665 3.9951 17.3612 3.97781 17.3554C3.9605 17.3496 3.94334 17.3434 3.92632 17.3369C3.9093 17.3303 3.89245 17.3233 3.87576 17.316C3.85906 17.3086 3.84254 17.3009 3.8262 17.2928C3.80986 17.2846 3.79371 17.2762 3.77775 17.2673C3.76181 17.2584 3.74608 17.2492 3.73055 17.2396C3.71503 17.2301 3.69973 17.2201 3.68466 17.2098C3.6696 17.1996 3.65478 17.1889 3.64021 17.178C3.62562 17.167 3.61131 17.1557 3.59725 17.1441C3.5832 17.1324 3.56942 17.1205 3.55591 17.1082C3.54241 17.0959 3.52919 17.0834 3.51626 17.0705C3.50334 17.0576 3.49071 17.0445 3.47839 17.031C3.46607 17.0175 3.45407 17.0038 3.4424 16.9898C3.43071 16.9758 3.41935 16.9615 3.40831 16.947C3.39729 16.9325 3.3866 16.9177 3.37625 16.9026C3.36591 16.8876 3.35591 16.8724 3.34626 16.8569C3.33663 16.8414 3.32735 16.8257 3.31843 16.8098C3.3095 16.7939 3.30095 16.7777 3.29277 16.7614C3.28459 16.7451 3.2768 16.7287 3.26939 16.712C3.26197 16.6953 3.25494 16.6785 3.2483 16.6615C3.24165 16.6445 3.23541 16.6274 3.22956 16.6101C3.2237 16.5928 3.21826 16.5754 3.21321 16.5579C3.20815 16.5403 3.2035 16.5227 3.19927 16.505C3.19503 16.4872 3.1912 16.4694 3.18779 16.4514C3.18438 16.4335 3.18138 16.4155 3.17879 16.3975C3.1762 16.3794 3.17403 16.3613 3.17228 16.3432L3.16675 16.2292L3.16675 4.35416C3.16675 4.33591 3.16717 4.31768 3.16801 4.29946C3.16885 4.28122 3.17011 4.26303 3.17179 4.24487C3.17346 4.2267 3.17556 4.20858 3.17808 4.1905C3.1806 4.17243 3.18352 4.15443 3.18686 4.13651C3.19021 4.11857 3.19397 4.10072 3.19814 4.08296C3.20231 4.0652 3.20688 4.04754 3.21185 4.02999C3.21684 4.01243 3.22222 3.99501 3.228 3.97772C3.23379 3.96041 3.23997 3.94325 3.24655 3.92623C3.25312 3.90921 3.26008 3.89235 3.26744 3.87567C3.27479 3.85897 3.28252 3.84245 3.29064 3.82611C3.29875 3.80977 3.30724 3.79362 3.31609 3.77766C3.32495 3.76172 3.33417 3.74598 3.34374 3.73046C3.35333 3.71493 3.36327 3.69964 3.37356 3.68457C3.38385 3.66951 3.39448 3.65469 3.40544 3.64012C3.41641 3.62553 3.42771 3.61121 3.43935 3.59716C3.45098 3.58311 3.46292 3.56933 3.47518 3.55582C3.48745 3.54231 3.50003 3.5291 3.5129 3.51617C3.52578 3.50324 3.53895 3.49062 3.55241 3.4783C3.56585 3.46598 3.57958 3.45398 3.5936 3.44231C3.60761 3.43062 3.62188 3.41925 3.6364 3.40822C3.65094 3.3972 3.66572 3.38651 3.68075 3.37616C3.69578 3.36582 3.71104 3.35582 3.72652 3.34617C3.74201 3.33654 3.75771 3.32726 3.77362 3.31834C3.78954 3.30941 3.80565 3.30086 3.82195 3.29268C3.83827 3.2845 3.85476 3.27671 3.87142 3.2693C3.88808 3.26188 3.90491 3.25485 3.92191 3.2482C3.9389 3.24156 3.95604 3.23532 3.97332 3.22946C3.9906 3.22361 4.008 3.21816 4.02553 3.21312C4.04306 3.20806 4.0607 3.20341 4.07845 3.19918C4.09619 3.19494 4.11402 3.19111 4.13194 3.1877C4.14987 3.18428 4.16786 3.18128 4.18592 3.1787C4.20398 3.17611 4.22209 3.17394 4.24025 3.17219L4.35425 3.16666L16.2292 3.16666Z"   fill="#A3A4A8" >
</path>
<path d="M13.0625 0C13.0807 8.68109e-07 13.099 0.000421933 13.1172 0.0012632C13.1354 0.00210445 13.1536 0.00336502 13.1718 0.00504491C13.19 0.00672477 13.2081 0.00882218 13.2261 0.0113371C13.2442 0.013852 13.2622 0.0167818 13.2802 0.0201264C13.2981 0.0234709 13.3159 0.027227 13.3337 0.0313942C13.3515 0.0355613 13.3691 0.0401354 13.3867 0.0451165C13.4042 0.0500975 13.4216 0.05548 13.4389 0.0612642C13.4563 0.0670483 13.4734 0.0732279 13.4904 0.0798029C13.5075 0.086378 13.5243 0.0933416 13.541 0.100693C13.5577 0.108046 13.5742 0.115778 13.5906 0.123891C13.6069 0.132005 13.623 0.14049 13.639 0.149348C13.6549 0.158205 13.6707 0.167425 13.6862 0.177008C13.7017 0.186591 13.717 0.196526 13.7321 0.206814C13.7472 0.217101 13.762 0.227729 13.7765 0.2387C13.7911 0.249672 13.8055 0.260973 13.8195 0.272604C13.8335 0.284234 13.8473 0.296181 13.8608 0.308447C13.8744 0.320714 13.8876 0.333283 13.9005 0.346158C13.9134 0.359033 13.926 0.372199 13.9383 0.385655C13.9507 0.399113 13.9627 0.412845 13.9744 0.426856C13.986 0.440867 13.9974 0.455137 14.0084 0.469671C14.0195 0.484203 14.0302 0.498982 14.0405 0.514009C14.0508 0.529035 14.0608 0.54429 14.0705 0.559776C14.0801 0.575264 14.0894 0.590963 14.0983 0.606877C14.1072 0.622792 14.1158 0.638904 14.124 0.655212C14.1321 0.67152 14.1399 0.688008 14.1474 0.704675C14.1548 0.721343 14.1618 0.738174 14.1685 0.755164C14.1751 0.772157 14.1814 0.789292 14.1872 0.806572C14.193 0.823852 14.1985 0.841256 14.2035 0.858787C14.2086 0.876319 14.2132 0.893957 14.2175 0.911701C14.2217 0.929445 14.2256 0.947278 14.229 0.9652C14.2324 0.983122 14.2354 1.00111 14.238 1.01917C14.2405 1.03723 14.2427 1.05534 14.2445 1.0735L14.25 1.1875L14.25 3.76675L12.6667 3.76675L12.6667 1.58333L1.58334 1.58333L1.58334 12.6667L3.81583 12.6667L3.81583 14.25L1.1875 14.25C1.16926 14.25 1.15102 14.2496 1.1328 14.2487C1.11458 14.2479 1.09638 14.2466 1.07821 14.2449C1.06005 14.2433 1.04193 14.2412 1.02386 14.2387C1.00579 14.2362 0.987789 14.2332 0.969854 14.2299C0.951919 14.2265 0.934071 14.2228 0.916311 14.2186C0.898548 14.2144 0.880894 14.2099 0.863343 14.2049C0.845792 14.1999 0.828365 14.1945 0.811063 14.1887C0.793761 14.1829 0.7766 14.1768 0.759581 14.1702C0.742565 14.1636 0.725708 14.1566 0.70901 14.1493C0.692313 14.142 0.675796 14.1342 0.659454 14.1261C0.643113 14.118 0.626969 14.1095 0.611019 14.1006C0.595071 14.0918 0.579335 14.0826 0.563811 14.073C0.548286 14.0634 0.532989 14.0535 0.517923 14.0432C0.502856 14.0329 0.488035 14.0223 0.473458 14.0113C0.458882 14.0003 0.444567 13.989 0.430512 13.9774C0.416457 13.9658 0.402676 13.9538 0.38917 13.9415C0.375664 13.9293 0.362449 13.9167 0.349524 13.9038C0.336597 13.891 0.323976 13.8778 0.311658 13.8643C0.299339 13.8509 0.287336 13.8372 0.27565 13.8231C0.263965 13.8091 0.252607 13.7948 0.241578 13.7803C0.230551 13.7658 0.219864 13.751 0.209516 13.736C0.19917 13.721 0.189174 13.7057 0.17953 13.6902C0.169886 13.6747 0.160604 13.659 0.151684 13.6431C0.142764 13.6272 0.134215 13.6111 0.126038 13.5948C0.11786 13.5785 0.110062 13.562 0.102645 13.5453C0.095227 13.5286 0.088197 13.5118 0.081555 13.4948C0.0749129 13.4778 0.0686659 13.4607 0.0628136 13.4434C0.0569613 13.4261 0.0515101 13.4087 0.04646 13.3912C0.04141 13.3737 0.0367663 13.356 0.0325294 13.3383C0.0282922 13.3206 0.024466 13.3027 0.0210507 13.2848C0.0176355 13.2669 0.0146348 13.2489 0.0120488 13.2308C0.00946269 13.2128 0.00729395 13.1947 0.00554255 13.1765L0 13.0625L0 1.1875C8.77687e-07 1.16925 0.000421952 1.15102 0.00126323 1.1328C0.00210451 1.11457 0.00336508 1.09638 0.00504497 1.07821C0.00672485 1.06005 0.00882226 1.04193 0.0113372 1.02386C0.0138521 1.00579 0.0167819 0.987786 0.0201265 0.969851C0.0234711 0.951918 0.0272272 0.93407 0.0313944 0.916308C0.0355616 0.898546 0.0401357 0.880891 0.0451167 0.86334C0.0500977 0.845789 0.0554802 0.828363 0.0612645 0.81106C0.0670485 0.793758 0.0732282 0.776597 0.0798032 0.75958C0.0863782 0.742562 0.0933418 0.725705 0.100694 0.709008C0.108046 0.69231 0.115779 0.675793 0.123892 0.659452C0.132005 0.643113 0.140491 0.626968 0.149348 0.611019C0.158206 0.595069 0.167426 0.579333 0.177008 0.563808C0.186592 0.548283 0.196526 0.532989 0.206814 0.517922C0.217103 0.502856 0.227731 0.488035 0.238702 0.473458C0.249674 0.458881 0.260974 0.444565 0.272604 0.430509C0.284236 0.416454 0.296183 0.402674 0.308448 0.389168C0.320714 0.375664 0.333285 0.362449 0.34616 0.349522C0.359035 0.336597 0.3722 0.323974 0.385656 0.311656C0.399113 0.299337 0.412846 0.287334 0.426856 0.275648C0.440867 0.263963 0.455137 0.252605 0.469671 0.241578C0.484205 0.230549 0.498984 0.219862 0.51401 0.209516C0.529035 0.199168 0.544291 0.189172 0.559779 0.179529C0.575264 0.169885 0.590965 0.160603 0.60688 0.151683C0.622794 0.142763 0.638905 0.134214 0.655213 0.126036C0.671521 0.117859 0.688008 0.110061 0.704676 0.102643C0.721344 0.0952258 0.738175 0.088196 0.755165 0.081554C0.772158 0.0749119 0.789293 0.0686648 0.806573 0.0628124C0.823853 0.0569603 0.841257 0.0515091 0.858788 0.0464591C0.87632 0.041409 0.893958 0.0367654 0.911702 0.0325282C0.929446 0.0282912 0.947279 0.0244651 0.965201 0.0210497C0.983123 0.0176345 1.00111 0.0146339 1.01917 0.0120479C1.03723 0.00946181 1.05534 0.00729308 1.0735 0.00554169L1.1875 1.65892e-08L13.0625 1.65892e-08L13.0625 0Z"   fill="#A3A4A8" >
</path>
<path d="M7.91667 7.91666L12.6667 7.91666C13.1944 7.91666 13.4583 8.18054 13.4583 8.70831C13.4583 9.23609 13.1944 9.49998 12.6667 9.49998L7.91667 9.49998C7.38889 9.49998 7.125 9.23609 7.125 8.70831C7.125 8.18054 7.38889 7.91666 7.91667 7.91666Z"   fill="#A3A4A8" >
</path>
</g>
<defs>
<clipPath id="clip-path-78_10">
<path d="M0 19L19 19L19 0L0 0L0 19Z" fill="white"/>
</clipPath>
</defs>
</svg>
